# xmcd CD database file
#
# Track frame offsets:
#	150
#	9490
#	19560
#	29391
#	39985
#	52197
#	62524
#	76052
#	86993
#	97819
#	107246
#	118674
#	127963
#	138161
#	147603
#	156201
#
# Disc length: 2229 seconds
#
# Revision: 0
# Processed by: cddbd v1.5.2PL0 Copyright (c) Steve Scherf et al.
# Submitted via: CDex 1.51
#
DISCID=cc08b310
DTITLE=Webb Pierce - All Hits (Disk 3)
DYEAR=2010
DGENRE=Country
TTITLE0=Honky Tonk Song
TTITLE1=Someday
TTITLE2=Bye Bye Love
TTITLE3=Missing You
TTITLE4=Oh So Many Years
TTITLE5=Holiday For Love
TTITLE6=Don't Go Darlin'
TTITLE7=One Week Later
TTITLE8=Crying Over You
TTITLE9=You'll Come Back
TTITLE10=Falling Back to You
TTITLE11=Tupelo County Jail
TTITLE12=I'm Letting You Go
TTITLE13=A Thousand Mile Ago
TTITLE14=I Ain't Never
TTITLE15=No Love Have I
EXTD=YEAR: 2010
EXTT0=
EXTT1=
EXTT2=
EXTT3=
EXTT4=
EXTT5=
EXTT6=
EXTT7=
EXTT8=
EXTT9=
EXTT10=
EXTT11=
EXTT12=
EXTT13=
EXTT14=
EXTT15=
PLAYORDER=
